<?xml version="1.0" encoding="UTF-8"?>
<svg version="1.1" xmlns="http://www.w3.org/2000/svg" width="1024" height="1024">
<path d="M0 0 C337.92 0 675.84 0 1024 0 C1024 337.92 1024 675.84 1024 1024 C686.08 1024 348.16 1024 0 1024 C0 686.08 0 348.16 0 0 Z " fill="#1D2333" transform="translate(0,0)"/>
<path d="M0 0 C10.10997718 9.41695456 15.72205956 25.09148497 17.01964378 38.62477875 C17.11393408 41.45067302 17.12211975 44.26160831 17.09057617 47.08886719 C17.09101425 48.14400513 17.09145233 49.19914307 17.09190369 50.28625488 C17.08983597 53.72749208 17.06660091 57.16822434 17.04296875 60.609375 C17.03736562 63.01360813 17.03309891 65.41784472 17.03010559 67.82208252 C17.01871337 74.11521042 16.98929495 80.40812686 16.95599365 86.70117188 C16.92517104 93.13668966 16.9115743 99.57224199 16.89648438 106.0078125 C16.86441952 118.60948231 16.8116979 131.2109404 16.75 143.8125 C2.23 143.8125 -12.29 143.8125 -27.25 143.8125 C-27.28738281 136.85414063 -27.32476562 129.89578125 -27.36328125 122.7265625 C-27.39357395 118.30596529 -27.4247304 113.88540771 -27.45898438 109.46484375 C-27.51321571 102.45558722 -27.56432957 95.44640907 -27.59643555 88.43701172 C-27.62253443 82.78290113 -27.66298359 77.12905523 -27.71318626 71.4751091 C-27.72981046 69.32310668 -27.74135232 67.17105853 -27.74761391 65.01900101 C-27.75730338 61.99367075 -27.78542067 58.96901093 -27.81762695 55.94384766 C-27.81619186 55.06342804 -27.81475677 54.18300842 -27.8132782 53.27590942 C-27.92209588 46.00007082 -29.24309938 39.18122603 -33 32.875 C-38.25937344 28.05390768 -43.57835009 27.18832239 -50.53125 27.3984375 C-56.25613264 28.27033055 -59.86512379 31.20304927 -63.5625 35.5 C-67.40581042 43.04427602 -68.69635847 50.3625212 -68.68237305 58.76025391 C-68.6925647 59.69805695 -68.70275635 60.63585999 -68.71325684 61.6020813 C-68.74315882 64.66447094 -68.7526177 67.72654664 -68.76171875 70.7890625 C-68.77858235 72.92712424 -68.79673484 75.06517616 -68.81611633 77.20321655 C-68.86343975 82.80247938 -68.89336317 88.40170241 -68.91955566 94.00109863 C-68.95471615 100.73445186 -69.01167836 107.46765233 -69.06494904 114.20088196 C-69.14325566 124.40473474 -69.19401832 134.60839038 -69.25 144.8125 C-84.1 144.8125 -98.95 144.8125 -114.25 144.8125 C-114.26417969 137.56539062 -114.27835937 130.31828125 -114.29296875 122.8515625 C-114.31303582 118.24864962 -114.33456283 113.64583567 -114.36132812 109.04296875 C-114.40363299 101.74393872 -114.44065623 94.44515958 -114.44555664 87.14599609 C-114.4498485 81.2583637 -114.47838584 75.37129379 -114.52343178 69.48383713 C-114.53637826 67.2425197 -114.54072463 65.00113486 -114.53615379 62.7597847 C-114.53122773 59.60959073 -114.55743075 56.46102807 -114.59057617 53.31103516 C-114.57763771 51.9343013 -114.57763771 51.9343013 -114.56443787 50.52975464 C-114.671964 44.39651492 -116.16030581 40.16566503 -119.17943287 34.82622337 C-120.25 32.8125 -120.25 32.8125 -120.25 30.8125 C-121.03375 30.503125 -121.8175 30.19375 -122.625 29.875 C-125.25 28.8125 -125.25 28.8125 -127.25 27.8125 C-134.05815907 27.07931364 -139.91166283 27.03360944 -145.56640625 31.1953125 C-151.49593149 36.89095856 -154.24360645 44.21067047 -154.5284729 52.33677673 C-154.55178946 54.06157093 -154.56462224 55.78652799 -154.56884766 57.51147461 C-154.58391609 58.9321524 -154.58391609 58.9321524 -154.59928894 60.38153076 C-154.63002576 63.49262927 -154.64712968 66.60364209 -154.6640625 69.71484375 C-154.68278178 71.87961052 -154.70235576 74.04437005 -154.7227478 76.2091217 C-154.7739946 81.89225999 -154.81366026 87.57542191 -154.85089111 93.25866699 C-154.89803191 100.08536985 -154.9595978 106.91195611 -155.01873779 113.73856354 C-155.10685915 124.0964951 -155.17668884 134.45440534 -155.25 144.8125 C-170.1 144.8125 -184.95 144.8125 -200.25 144.8125 C-200.58 94.3225 -200.91 43.8325 -201.25 -8.1875 C-187.39 -8.1875 -173.53 -8.1875 -159.25 -8.1875 C-158.59 -0.5975 -157.93 6.9925 -157.25 14.8125 C-156.239375 13.141875 -155.22875 11.47125 -154.1875 9.75 C-147.52388421 -0.60382532 -140.06999659 -6.24750114 -128.25 -10.1875 C-113.49285722 -11.44607096 -100.47194018 -11.20055684 -88.5 -1.6875 C-83.22288098 3.32913965 -79.77960805 9.50344582 -76.25 15.8125 C-75.77433594 15.01199219 -75.77433594 15.01199219 -75.2890625 14.1953125 C-67.99226541 2.54462543 -58.85395843 -6.19924359 -45.39453125 -9.9921875 C-29.36387609 -13.29328151 -12.92136267 -10.38105697 0 0 Z " fill="#FCFCFC" transform="translate(510.25,463.1875)"/>
<path d="M0 0 C14.67370677 11.08388922 23.2210119 27.20824237 27 45 C27 46.32 27 47.64 27 49 C12.15 49 -2.7 49 -18 49 C-19.65 45.04 -21.3 41.08 -23 37 C-25.33336666 33.99666733 -25.33336666 33.99666733 -28 32 C-28.7425 31.319375 -29.485 30.63875 -30.25 29.9375 C-37.54218793 24.79982214 -44.10182401 23.35284093 -52.9375 23.5 C-53.86240234 23.48453125 -54.78730469 23.4690625 -55.74023438 23.453125 C-65.81311791 23.50959527 -73.95012959 26.99751528 -81.609375 33.4765625 C-97.69675692 50.45768786 -97.74667482 73.62740906 -97.17919922 95.53027344 C-96.42447266 110.14358926 -91.40102906 124.32106836 -81.1953125 135.03125 C-72.00316989 143.27473732 -61.51704526 146.62577448 -49.30078125 146.28125 C-39.23288399 145.42339367 -29.28695861 142.64018214 -22.1875 135.06640625 C-16.96521348 127.95104087 -15.10821138 119.43284552 -13 111 C-26.2 111 -39.4 111 -53 111 C-53 98.79 -53 86.58 -53 74 C-25.94 74 1.12 74 29 74 C29 109.64 29 145.28 29 182 C18.77 182 8.54 182 -2 182 C-4.25 167.375 -4.25 167.375 -4 162 C-4.66 162 -5.32 162 -6 162 C-6.185625 162.680625 -6.37125 163.36125 -6.5625 164.0625 C-11.49331726 174.13851788 -22.6915742 179.67800983 -32.84228516 183.26708984 C-54.14337928 190.08284427 -78.30879737 186.17440949 -98.046875 176.5078125 C-119.64739443 164.81219446 -132.33078956 144.92943068 -139.89453125 122.18359375 C-143.42547366 109.48546282 -144.56997294 97.50048564 -144.5 84.375 C-144.49923462 83.54327271 -144.49846924 82.71154541 -144.49768066 81.85461426 C-144.40189956 52.95787242 -135.81255876 26.71401444 -115 6 C-83.57642367 -22.3922259 -34.18149529 -24.12504927 0 0 Z " fill="#4EA79B" transform="translate(688,426)"/>
<path d="M0 0 C0.66 0 1.32 0 2 0 C2.51046875 1.17755859 2.51046875 1.17755859 3.03125 2.37890625 C8.05320028 13.26425062 13.78827324 18.82155554 25 23 C25 23.66 25 24.32 25 25 C24.21496094 25.3403125 23.42992187 25.680625 22.62109375 26.03125 C11.73574938 31.05320028 6.17844446 36.78827324 2 48 C1.34 48 0.68 48 0 48 C-0.3403125 47.21496094 -0.680625 46.42992187 -1.03125 45.62109375 C-6.05320028 34.73574938 -11.78827324 29.17844446 -23 25 C-23 24.34 -23 23.68 -23 23 C-22.21496094 22.6596875 -21.42992187 22.319375 -20.62109375 21.96875 C-9.73574938 16.94679972 -4.17844446 11.21172676 0 0 Z " fill="#5F646F" transform="translate(903,880)"/>
<path d="M0 0 C0.66 0 1.32 0 2 0 C2.02312446 9.76150988 2.04091561 19.5230133 2.05181217 29.28454494 C2.05704078 33.81674094 2.06413801 38.34891827 2.07543945 42.88110352 C2.08626914 47.2512283 2.09227701 51.62133508 2.09487724 55.99147224 C2.09673135 57.66250963 2.10035168 59.33354597 2.10573006 61.00457573 C2.11294159 63.33697551 2.1139909 65.66929993 2.11352539 68.00170898 C2.11712067 68.6994191 2.12071594 69.39712921 2.12442017 70.11598206 C2.11405216 74.88594784 2.11405216 74.88594784 1 76 C0.83970312 78.95529504 0.74042672 81.88982457 0.68359375 84.84765625 C0.66281265 85.7340831 0.64203156 86.62050995 0.62062073 87.53379822 C0.555026 90.376617 0.49619448 93.21953117 0.4375 96.0625 C0.3943242 97.98503606 0.35071022 99.90756234 0.30664062 101.83007812 C0.19933457 106.55328668 0.09809549 111.27659153 0 116 C-0.33 116 -0.66 116 -1 116 C-1.15396937 101.98769442 -1.30193173 87.97533646 -1.4429636 73.96289444 C-1.508623 67.45667543 -1.57621543 60.95048836 -1.64819336 54.44433594 C-1.71755838 48.16798641 -1.78188777 41.89160378 -1.84269524 35.61516571 C-1.86680929 33.21811797 -1.89275156 30.82108792 -1.92053413 28.4240799 C-1.95907558 25.07213608 -1.99117287 21.72018884 -2.02172852 18.36816406 C-2.03467453 17.37266541 -2.04762054 16.37716675 -2.06095886 15.35150146 C-2.06799835 14.43727417 -2.07503784 13.52304687 -2.08229065 12.58111572 C-2.09058679 11.78837376 -2.09888292 10.99563179 -2.10743046 10.17886734 C-1.99915204 7.98280197 -1.60285077 6.1091354 -1 4 C-0.814375 3.2575 -0.62875 2.515 -0.4375 1.75 C-0.293125 1.1725 -0.14875 0.595 0 0 Z " fill="#131726" transform="translate(529,491)"/>
<path d="M0 0 C0.99 0.33 1.98 0.66 3 1 C3.6875 3.0625 3.6875 3.0625 4 5 C4.66 5 5.32 5 6 5 C6.99 7.31 7.98 9.62 9 12 C9.99 11.67 10.98 11.34 12 11 C12 11.99 12 12.98 12 14 C17.2145927 13.88177165 22.428994 13.75752459 27.64331055 13.62768555 C29.41735937 13.58436066 31.19144923 13.54268381 32.96557617 13.50268555 C35.51493705 13.4449238 38.0640918 13.38124638 40.61328125 13.31640625 C41.40712723 13.29969376 42.20097321 13.28298126 43.01887512 13.26576233 C46.24683077 13.17882282 48.91751099 13.02749634 52 12 C52 13.32 52 14.64 52 16 C37.15 16 22.3 16 7 16 C5.35 12.04 3.7 8.08 2 4 C1.34 2.68 0.68 1.36 0 0 Z " fill="#58A099" transform="translate(663,459)"/>
<path d="M0 0 C0.86560547 0.00451172 1.73121094 0.00902344 2.62304688 0.01367188 C4.72789539 0.02530087 6.83270758 0.04322927 8.9375 0.0625 C8.9375 0.3925 8.9375 0.7225 8.9375 1.0625 C7.96554687 1.07667969 6.99359375 1.09085937 5.9921875 1.10546875 C-14.92034448 1.70606285 -33.31792651 6.82959485 -50.9375 18.125 C-51.96875 18.764375 -53 19.40375 -54.0625 20.0625 C-54.7225 19.7325 -55.3825 19.4025 -56.0625 19.0625 C-54.25 17.0625 -54.25 17.0625 -52.0625 15.0625 C-51.0725 15.0625 -50.0825 15.0625 -49.0625 15.0625 C-49.0625 14.4025 -49.0625 13.7425 -49.0625 13.0625 C-47.15100332 12.0526527 -45.23308431 11.05495505 -43.3125 10.0625 C-42.24515625 9.505625 -41.1778125 8.94875 -40.078125 8.375 C-37.0625 7.0625 -37.0625 7.0625 -33.0625 7.0625 C-33.0625 6.4025 -33.0625 5.7425 -33.0625 5.0625 C-31.7425 5.0625 -30.4225 5.0625 -29.0625 5.0625 C-29.0625 4.0725 -29.0625 3.0825 -29.0625 2.0625 C-28.13630859 1.97162109 -28.13630859 1.97162109 -27.19140625 1.87890625 C-25.92103516 1.75322266 -25.92103516 1.75322266 -24.625 1.625 C-23.80128906 1.54378906 -22.97757813 1.46257812 -22.12890625 1.37890625 C-20.43760806 1.20439013 -18.74683981 1.02212352 -17.06030273 0.80639648 C-11.34892915 0.09742875 -5.7511429 -0.05800222 0 0 Z " fill="#112D34" transform="translate(633.0625,407.9375)"/>
<path d="M0 0 C13.2 0 26.4 0 40 0 C39.67 1.65 39.34 3.3 39 5 C38.505 3.515 38.505 3.515 38 2 C25.46 2 12.92 2 0 2 C0 1.34 0 0.68 0 0 Z " fill="#102F38" transform="translate(635,537)"/>
<path d="M0 0 C7.92 0 15.84 0 24 0 C22.02 0.99 22.02 0.99 20 2 C19.34 2.66 18.68 3.32 18 4 C14.7421875 4.1953125 14.7421875 4.1953125 10.875 4.125 C8.95300781 4.09792969 8.95300781 4.09792969 6.9921875 4.0703125 C5.51105469 4.03550781 5.51105469 4.03550781 4 4 C5.32 3.34 6.64 2.68 8 2 C5.36 1.67 2.72 1.34 0 1 C0 0.67 0 0.34 0 0 Z " fill="#161B28" transform="translate(467,448)"/>
<path d="M0 0 C0.86560547 0.00451172 1.73121094 0.00902344 2.62304688 0.01367188 C4.72789539 0.02530087 6.83270758 0.04322927 8.9375 0.0625 C8.9375 0.3925 8.9375 0.7225 8.9375 1.0625 C7.82632813 1.11148437 6.71515625 1.16046875 5.5703125 1.2109375 C-1.67810768 1.56414096 -8.61589225 2.00272923 -15.703125 3.65234375 C-20.1246504 4.42098641 -24.59154184 4.21549857 -29.0625 4.0625 C-29.0625 3.4025 -29.0625 2.7425 -29.0625 2.0625 C-28.13630859 1.97162109 -28.13630859 1.97162109 -27.19140625 1.87890625 C-25.92103516 1.75322266 -25.92103516 1.75322266 -24.625 1.625 C-23.80128906 1.54378906 -22.97757813 1.46257812 -22.12890625 1.37890625 C-20.43760806 1.20439013 -18.74683981 1.02212352 -17.06030273 0.80639648 C-11.34892915 0.09742875 -5.7511429 -0.05800222 0 0 Z " fill="#0F242C" transform="translate(633.0625,407.9375)"/>
<path d="M0 0 C0.66 0 1.32 0 2 0 C1.86179731 3.3128652 1.71316222 6.62517989 1.5625 9.9375 C1.52318359 10.88302734 1.48386719 11.82855469 1.44335938 12.80273438 C1.40146484 13.70185547 1.35957031 14.60097656 1.31640625 15.52734375 C1.27974854 16.35999756 1.24309082 17.19265137 1.20532227 18.05053711 C1 20 1 20 0 21 C-0.36760731 23.32817964 -0.70241581 25.6618385 -1 28 C-1.33 28 -1.66 28 -2 28 C-2.38297872 8.46808511 -2.38297872 8.46808511 0 0 Z " fill="#569891" transform="translate(546,481)"/>
<path d="M0 0 C0 0.33 0 0.66 0 1 C-0.56847656 1.03738281 -1.13695312 1.07476562 -1.72265625 1.11328125 C-7.06480947 1.56812234 -11.07844315 2.7629287 -16 5 C-18.68944763 5.89321071 -21.19610307 6.47723955 -24 7 C-24.66 6.34 -25.32 5.68 -26 5 C-23.77236012 4.18309823 -21.5430514 3.37138128 -19.3125 2.5625 C-18.68666016 2.33240234 -18.06082031 2.10230469 -17.41601562 1.86523438 C-11.00644495 -0.45026498 -6.75310591 -1.19172457 0 0 Z " fill="#559690" transform="translate(622,412)"/>
<path d="M0 0 C0.66 0 1.32 0 2 0 C2.33868777 2.20751848 2.67071689 4.41605911 3 6.625 C3.185625 7.85476563 3.37125 9.08453125 3.5625 10.3515625 C3.95402516 13.6166027 4.08080924 16.71712451 4 20 C3.34 20 2.68 20 2 20 C1.34 15.38 0.68 10.76 0 6 C-1.65 6.66 -3.3 7.32 -5 8 C-4.21718695 6.66144944 -3.42348123 5.32926356 -2.625 4 C-2.18414063 3.2575 -1.74328125 2.515 -1.2890625 1.75 C-0.86367188 1.1725 -0.43828125 0.595 0 0 Z " fill="#0F2930" transform="translate(682,588)"/>
<path d="M0 0 C3.12307703 2.93379964 5.71397265 5.91678089 8.25 9.375 C11.87395296 14.15093801 16.12380842 17.56123451 21 21 C15.77067665 21 11.75079446 17.44667599 8 14 C6.6875 11.25 6.6875 11.25 6 9 C5.34 9 4.68 9 4 9 C0 2.25 0 2.25 0 0 Z " fill="#5CA19C" transform="translate(595,547)"/>
<path d="M0 0 C0.80179688 0.05220703 1.60359375 0.10441406 2.4296875 0.15820312 C4.41179103 0.28798371 6.39344499 0.42459735 8.375 0.5625 C6.375 2.5625 6.375 2.5625 2.6796875 2.7578125 C1.20299892 2.744509 -0.27362358 2.72064835 -1.75 2.6875 C-2.50410156 2.67847656 -3.25820313 2.66945313 -4.03515625 2.66015625 C-5.89857254 2.6365687 -7.76182593 2.60069719 -9.625 2.5625 C-9.955 1.9025 -10.285 1.2425 -10.625 0.5625 C-7.2967269 -1.10163655 -3.62766027 -0.25617406 0 0 Z " fill="#0B212A" transform="translate(640.625,569.4375)"/>
<path d="M0 0 C6.7857936 0.54863863 13.35009036 1.54267938 20 3 C16.53001271 5.31332486 15.07490752 5.33957563 11 5 C10.01 4.34 9.02 3.68 8 3 C5.95415921 2.33841957 5.95415921 2.33841957 3.8125 1.875 C2.554375 1.58625 1.29625 1.2975 0 1 C0 0.67 0 0.34 0 0 Z " fill="#579B97" transform="translate(643,410)"/>
<path d="M0 0 C6.0546875 -0.1953125 6.0546875 -0.1953125 8 0 C8.66 0.66 9.32 1.32 10 2 C12.66242821 2.46290221 12.66242821 2.46290221 15.625 2.625 C17.12933594 2.73714844 17.12933594 2.73714844 18.6640625 2.8515625 C19.43492187 2.90054688 20.20578125 2.94953125 21 3 C21 3.33 21 3.66 21 4 C13.2723068 4.31806054 7.06075526 4.32270836 0 1 C0 0.67 0 0.34 0 0 Z " fill="#1C4347" transform="translate(621,569)"/>
<path d="M0 0 C2.97 0.99 5.94 1.98 9 3 C9 3.66 9 4.32 9 5 C11.97 5.495 11.97 5.495 15 6 C13.359375 7.20703125 13.359375 7.20703125 11 8 C8.203125 6.69921875 8.203125 6.69921875 5.25 4.6875 C4.26515625 4.03136719 3.2803125 3.37523437 2.265625 2.69921875 C1.51796875 2.13847656 0.7703125 1.57773437 0 1 C0 0.67 0 0.34 0 0 Z " fill="#133038" transform="translate(608,562)"/>
<path d="M0 0 C0.33 0.99 0.66 1.98 1 3 C-1.64 5.31 -4.28 7.62 -7 10 C-7.66 9.67 -8.32 9.34 -9 9 C-6.21000549 5.51250686 -3.74764169 2.49842779 0 0 Z " fill="#569B94" transform="translate(577,429)"/>
<path d="M0 0 C1.98 0.66 3.96 1.32 6 2 C5.01 3.98 4.02 5.96 3 8 C1.10786631 5.61426621 -0.02391783 3.92824652 -1 1 C-0.67 0.67 -0.34 0.34 0 0 Z " fill="#2D313B" transform="translate(431,472)"/>
<path d="M0 0 C0.33 0.99 0.66 1.98 1 3 C-1.31 4.98 -3.62 6.96 -6 9 C-6.66 8.34 -7.32 7.68 -8 7 C-5.36 4.69 -2.72 2.38 0 0 Z " fill="#17303A" transform="translate(611,455)"/>
<path d="M0 0 C0.33 0 0.66 0 1 0 C0.53727822 5.36757261 -0.13719579 9.30500109 -3 14 C-3.99 14.495 -3.99 14.495 -5 15 C-4.41196203 11.97580475 -3.77321882 8.98241547 -3 6 C-2.34 6 -1.68 6 -1 6 C-0.67 4.02 -0.34 2.04 0 0 Z " fill="#0F2A33" transform="translate(672,543)"/>
<path d="M0 0 C0 0.33 0 0.66 0 1 C-4.873261 2.5912689 -8.80790596 3.21192221 -14 3 C-9.85211179 -1.14788821 -5.49312659 -1.30788728 0 0 Z " fill="#17333C" transform="translate(630,450)"/>
<path d="M0 0 C0 0.66 0 1.32 0 2 C1.32 2.66 2.64 3.32 4 4 C0.42355152 5.2380014 -2.33694766 4.74926071 -6 4 C-5.67 3.01 -5.34 2.02 -5 1 C-2 0 -2 0 0 0 Z " fill="#2C2F39" transform="translate(489,449)"/>
<path d="M0 0 C0 0.66 0 1.32 0 2 C-3.20525917 4.62248477 -4.62017877 5.03113289 -8.8125 4.6875 C-10.3903125 4.3471875 -10.3903125 4.3471875 -12 4 C-8.30376141 2.00971768 -4.25699221 0 0 0 Z " fill="#17343C" transform="translate(660,607)"/>
<path d="M0 0 C0.66 0 1.32 0 2 0 C2 2.31 2 4.62 2 7 C1.01 7 0.02 7 -1 7 C-2.33981486 7.3062434 -3.67511887 7.63451555 -5 8 C-4.21718695 6.66144944 -3.42348123 5.32926356 -2.625 4 C-2.18414063 3.2575 -1.74328125 2.515 -1.2890625 1.75 C-0.86367188 1.1725 -0.43828125 0.595 0 0 Z " fill="#113539" transform="translate(682,588)"/>
<path d="M0 0 C0.66 0 1.32 0 2 0 C2 2.64 2 5.28 2 8 C1.01 8.495 1.01 8.495 0 9 C0 7.68 0 6.36 0 5 C-0.66 5 -1.32 5 -2 5 C-1.125 1.125 -1.125 1.125 0 0 Z " fill="#111522" transform="translate(446,502)"/>
<path d="M0 0 C0.99 0.33 1.98 0.66 3 1 C3.6875 3.0625 3.6875 3.0625 4 5 C4.66 5 5.32 5 6 5 C6.66 7.31 7.32 9.62 8 12 C7.01 12.495 7.01 12.495 6 13 C5.18501438 11.3970947 4.37310073 9.79262722 3.5625 8.1875 C3.11003906 7.29417969 2.65757812 6.40085937 2.19140625 5.48046875 C1 3 1 3 0 0 Z " fill="#5A9F9A" transform="translate(663,459)"/>
<path d="M0 0 C0.66 0 1.32 0 2 0 C3.5078125 1.53125 3.5078125 1.53125 5.125 3.5 C5.66382813 4.1496875 6.20265625 4.799375 6.7578125 5.46875 C7.16773438 5.9740625 7.57765625 6.479375 8 7 C7.34 7.66 6.68 8.32 6 9 C4.99406757 7.8803014 3.9954151 6.7540588 3 5.625 C2.443125 4.99851562 1.88625 4.37203125 1.3125 3.7265625 C0 2 0 2 0 0 Z " fill="#122C35" transform="translate(601,553)"/>
<path d="M0 0 C1.76462683 3.08809695 2 4.23312136 2 8 C1.34 8 0.68 8 0 8 C-0.33 8.66 -0.66 9.32 -1 10 C-1.02689216 8.52093108 -1.04634621 7.04172517 -1.0625 5.5625 C-1.07410156 4.73878906 -1.08570313 3.91507812 -1.09765625 3.06640625 C-1 1 -1 1 0 0 Z " fill="#101624" transform="translate(479,501)"/>
<path d="M0 0 C0.33 0.66 0.66 1.32 1 2 C1.66 2 2.32 2 3 2 C3 3.65 3 5.3 3 7 C1.68 7 0.36 7 -1 7 C-0.67 4.69 -0.34 2.38 0 0 Z " fill="#2B2F3B" transform="translate(443,505)"/>
<path d="M0 0 C4.06623972 1.35541324 5.53046818 3.57009469 8 7 C7.67 7.99 7.34 8.98 7 10 C5.82739389 8.71372289 4.6620717 7.42080217 3.5 6.125 C2.8503125 5.40570313 2.200625 4.68640625 1.53125 3.9453125 C0 2 0 2 0 0 Z " fill="#5D9C99" transform="translate(693,432)"/>
<path d="M0 0 C-1 3 -1 3 -4 5 C-4.66 5.66 -5.32 6.32 -6 7 C-6.66 5.68 -7.32 4.36 -8 3 C-2.25 0 -2.25 0 0 0 Z " fill="#57A098" transform="translate(596,418)"/>
<path d="M0 0 C2.1519437 3.22791555 2.20086443 4.28400809 2 8 C1.01 8 0.02 8 -1 8 C-1.04241723 5.66705225 -1.04092937 3.33297433 -1 1 C-0.67 0.67 -0.34 0.34 0 0 Z " fill="#112A32" transform="translate(547,544)"/>
<path d="M0 0 C1.258125 0.12375 2.51625 0.2475 3.8125 0.375 C4.87404297 0.47941406 4.87404297 0.47941406 5.95703125 0.5859375 C8 1 8 1 11 3 C8.83032311 3.95465783 7.43671207 4.14401212 5.17578125 3.3984375 C3.4315257 2.64129615 1.71372869 1.82390802 0 1 C0 0.67 0 0.34 0 0 Z " fill="#16343D" transform="translate(666,414)"/>
<path d="M0 0 C0.33 0 0.66 0 1 0 C1 2.97 1 5.94 1 9 C0.01 9.33 -0.98 9.66 -2 10 C-1.34 6.7 -0.68 3.4 0 0 Z " fill="#559791" transform="translate(674,541)"/>
<path d="M0 0 C1 3 1 3 -0.4375 6.1875 C-1.2109375 7.5796875 -1.2109375 7.5796875 -2 9 C-2.66 8.67 -3.32 8.34 -4 8 C-2.87548273 5.0280615 -1.77706209 2.66559313 0 0 Z " fill="#132D37" transform="translate(602,464)"/>
<path d="M0 0 C1.65 0 3.3 0 5 0 C4.67 1.65 4.34 3.3 4 5 C3.34 5 2.68 5 2 5 C1.34 3.35 0.68 1.7 0 0 Z " fill="#141927" transform="translate(364,455)"/>
<path d="M0 0 C-2.7219246 1.3609623 -4.1831957 0.70366248 -7.125 0.0625 C-8.03507813 -0.13214844 -8.94515625 -0.32679688 -9.8828125 -0.52734375 C-10.58148437 -0.68332031 -11.28015625 -0.83929688 -12 -1 C-12 -1.33 -12 -1.66 -12 -2 C-6.93395388 -3.3268216 -4.47171108 -2.66173278 0 0 Z " fill="#193941" transform="translate(665,413)"/>
</svg>
