<?xml version="1.0" encoding="UTF-8"?>
<svg version="1.1" xmlns="http://www.w3.org/2000/svg" viewBox="0 0 1050 912" width="1050" height="912">
<path d="M0 0 C346.5 0 693 0 1050 0 C1050 300.96 1050 601.92 1050 912 C703.5 912 357 912 0 912 C0 611.04 0 310.08 0 0 Z " fill="#1E2332" transform="translate(0,0)"/>
<path d="M0 0 C1.24265625 0.00902344 2.4853125 0.01804687 3.765625 0.02734375 C6.80229004 0.05070271 9.83853853 0.08345717 12.875 0.125 C12.875 0.785 12.875 1.445 12.875 2.125 C13.90238281 2.16238281 14.92976563 2.19976562 15.98828125 2.23828125 C37.56689954 3.18432216 58.14878952 11.38522482 73.1875 27.375 C83.17661262 39.52449886 89.96996973 53.18594177 95.0625 68 C95.30057373 68.68223633 95.53864746 69.36447266 95.78393555 70.06738281 C100.60871438 84.69899391 101.30063698 98.57142219 101.21557617 113.83959961 C101.21472829 115.98956795 101.21520819 118.13953716 101.21690369 120.289505 C101.21775875 126.08189804 101.20021262 131.87410186 101.17918181 137.66645122 C101.16033301 143.73624744 101.15865814 149.80604877 101.15510559 155.87586975 C101.14580912 167.3501851 101.12122798 178.82441394 101.09105712 190.29869133 C101.05743821 203.37012049 101.04100831 216.44155394 101.02597082 229.51301563 C100.99467615 256.38373599 100.93969422 283.25433786 100.875 310.125 C71.835 310.125 42.795 310.125 12.875 310.125 C12.76542969 296.6671875 12.65585937 283.209375 12.54296875 269.34375 C12.46706271 260.80336728 12.39043307 252.26300114 12.31054688 243.72265625 C12.18396273 230.17567573 12.06028084 216.62871449 11.95581055 203.08154297 C11.87969829 193.21346301 11.79346354 183.34553087 11.69533139 173.47764444 C11.64377107 168.2580258 11.59710487 163.03847177 11.56258202 157.81871033 C11.52984897 152.8938312 11.48346169 147.9692596 11.42712593 143.04459572 C11.40889109 141.24852097 11.39541323 139.45238975 11.38736725 137.65624046 C11.31539908 122.6158048 9.82885946 108.80876137 3.9609375 94.796875 C2.875 92.125 2.875 92.125 2.4765625 89.890625 C2.03443818 87.98702303 2.03443818 87.98702303 0.24609375 87.09765625 C-0.53636719 86.77667969 -1.31882812 86.45570313 -2.125 86.125 C-3.20652344 85.56683594 -4.28804688 85.00867188 -5.40234375 84.43359375 C-6.62232395 83.80975523 -7.84237785 83.18606084 -9.0625 82.5625 C-9.67029297 82.24603516 -10.27808594 81.92957031 -10.90429688 81.60351562 C-19.37292764 77.30068381 -28.8889802 76.79614341 -38.16796875 78.7734375 C-46.79786945 81.62166989 -53.84325508 86.71573859 -59.125 94.125 C-60.29293501 96.55998377 -61.36725708 98.94127965 -62.375 101.4375 C-62.643125 102.08267578 -62.91125 102.72785156 -63.1875 103.39257812 C-63.84061481 104.96705132 -64.48384404 106.54561916 -65.125 108.125 C-65.785 108.125 -66.445 108.125 -67.125 108.125 C-68.62083407 121.21200205 -69.44500802 134.1181879 -69.53564453 147.28613281 C-69.55487617 149.10187597 -69.57490017 150.91761087 -69.59564209 152.7333374 C-69.64895231 157.59144864 -69.69138928 162.44959719 -69.73164606 167.30783176 C-69.77586107 172.41140309 -69.83039231 177.51486481 -69.88375854 182.61834717 C-69.98295165 192.25076378 -70.07306976 201.88324232 -70.15980327 211.5157783 C-70.27774418 224.55466878 -70.40995592 237.59341442 -70.54130363 250.63217545 C-70.74741726 271.12968553 -70.93468178 291.62732307 -71.125 312.125 C-100.825 312.125 -130.525 312.125 -161.125 312.125 C-161.18558594 299.92660156 -161.24617187 287.72820312 -161.30859375 275.16015625 C-161.34913225 267.38997104 -161.38989234 259.61978802 -161.43164062 251.84960938 C-161.49773132 239.54127127 -161.56296815 227.23293327 -161.62231445 214.92456055 C-161.66556006 205.95632592 -161.71193148 196.9881135 -161.76187855 188.01991361 C-161.78815937 183.28233202 -161.81299606 178.5447539 -161.83407402 173.80714607 C-161.92738679 149.18126877 -161.92738679 149.18126877 -162.53930664 124.56420898 C-162.58771399 123.09847364 -162.58771399 123.09847364 -162.63709927 121.60312748 C-163.1127411 110.43471444 -166.53227268 101.54951854 -171.953125 91.78125 C-173.18927169 88.9793175 -173.36605978 87.14920451 -173.125 84.125 C-173.67027344 83.94324219 -174.21554687 83.76148438 -174.77734375 83.57421875 C-175.53144531 83.32285156 -176.28554688 83.07148438 -177.0625 82.8125 C-177.89265625 82.54179687 -178.7228125 82.27109375 -179.578125 81.9921875 C-181.14599044 81.45834375 -182.70251707 80.88757632 -184.234375 80.2578125 C-194.36773804 76.25780077 -206.1211443 77.04305579 -216.125 81.125 C-229.41005082 87.77818757 -234.92294931 100.34695758 -239.546875 113.76171875 C-241.03189586 119.8322432 -241.27839347 126.00069015 -241.32118225 132.22424316 C-241.33020378 132.99878641 -241.33922531 133.77332965 -241.34852022 134.5713439 C-241.37739134 137.14454189 -241.3997603 139.71775345 -241.42211914 142.29101562 C-241.44157764 144.144393 -241.46143986 145.99776618 -241.48167419 147.85113525 C-241.53529632 152.86699515 -241.58328712 157.88289483 -241.63025212 162.89882088 C-241.68035042 168.14657037 -241.73564831 173.39426503 -241.79039001 178.64196777 C-241.89319114 188.57230398 -241.99132932 198.50268054 -242.08778423 208.4330802 C-242.21844169 221.85693885 -242.35631844 235.28072324 -242.49378681 248.70451355 C-242.71008529 269.84461992 -242.91675214 290.98480925 -243.125 312.125 C-272.825 312.125 -302.525 312.125 -333.125 312.125 C-333.67348357 264.56363908 -333.67348357 264.56363908 -333.8359375 248.2109375 C-333.85313402 246.48001421 -333.85313402 246.48001421 -333.87067795 244.71412277 C-334.1945292 211.76121722 -334.41945866 178.80753486 -334.63738817 145.85378653 C-334.67571079 140.06382484 -334.71496895 134.27387004 -334.75460815 128.48391724 C-335.0329616 87.69632248 -335.17077875 46.91386455 -335.125 6.125 C-307.405 6.125 -279.685 6.125 -251.125 6.125 C-248.125 36.125 -248.125 36.125 -247.125 47.125 C-246.795 47.785 -246.465 48.445 -246.125 49.125 C-245.7125 48.44695312 -245.3 47.76890625 -244.875 47.0703125 C-231.66469803 25.78049549 -214.76309446 9.59766698 -190.421875 2.31640625 C-166.81062489 -2.68890262 -137.0299358 0.34034028 -116.5234375 13.4140625 C-105.9455613 20.95984389 -96.68645231 30.80907878 -92.125 43.125 C-90.85065707 45.72978901 -89.53332849 48.30995894 -88.2109375 50.890625 C-87.125 53.125 -87.125 53.125 -86.125 56.125 C-85.465 56.125 -84.805 56.125 -84.125 56.125 C-83.75375 54.8875 -83.75375 54.8875 -83.375 53.625 C-75.5787621 31.79553389 -56.22139764 16.76967886 -36.0546875 6.921875 C-24.04599651 1.31345313 -13.2578077 -0.18453051 0 0 Z " fill="#FBFBFB" transform="translate(441.125,325.875)"/>
<path d="M0 0 C0.33 0.66 0.66 1.32 1 2 C5.54858881 3.61845137 10.21148709 4.01517172 15 4.125 C21.26668875 4.57577733 26.30645293 7.19798705 31.81054688 10.02978516 C35.19841453 11.75957365 38.30083578 13.17491511 42.02734375 13.9921875 C46.4342471 14.9787593 50.00132935 16.91440195 53.875 19.1875 C54.92252441 19.79295654 54.92252441 19.79295654 55.99121094 20.41064453 C66.43452683 26.51667398 75.27643399 33.66545788 84 42 C84.83015625 42.77730469 85.6603125 43.55460937 86.515625 44.35546875 C91.81871693 49.45112681 96.01938009 54.82780284 100 61 C100.62519531 61.93070312 101.25039063 62.86140625 101.89453125 63.8203125 C113.99218736 82.47981364 124 105.6021316 124 128 C94.3 128 64.6 128 34 128 C31.69 123.05 29.38 118.1 27 113 C18.5852457 95.53541561 5.81880101 86.31058381 -12.109375 79.69140625 C-21.68751046 77.40041979 -31.7578276 77.75069814 -41.55029297 77.70483398 C-43.27042832 77.69325333 -44.99052608 77.67270678 -46.71044922 77.64331055 C-49.22647925 77.60047534 -51.74146251 77.58445368 -54.2578125 77.57421875 C-55.01635529 77.55671066 -55.77489807 77.53920258 -56.556427 77.52116394 C-64.04351734 77.55125566 -69.49331915 80.74911817 -75.5 85 C-78.25083344 86.89501859 -80.8838162 88.46691297 -83.9375 89.8125 C-91.12585534 93.25481101 -97.08891481 98.62103188 -100 106 C-101.485 106.495 -101.485 106.495 -103 107 C-103.73323796 109.01508358 -103.73323796 109.01508358 -104 111 C-104.66 111 -105.32 111 -106 111 C-106.33 112.98 -106.66 114.96 -107 117 C-107.66 117 -108.32 117 -109 117 C-109.23783203 117.87398437 -109.23783203 117.87398437 -109.48046875 118.765625 C-110.83861869 123.53790878 -112.40756502 128.03273769 -114.4375 132.5625 C-119.73044061 145.0455497 -121.61620806 158.32466232 -122.79516602 171.74536133 C-122.93582523 173.29361861 -123.09349203 174.84039615 -123.26538086 176.38549805 C-124.16984941 184.93559017 -124.20081184 193.47545231 -124.1875 202.0625 C-124.18609512 203.23076828 -124.18609512 203.23076828 -124.18466187 204.42263794 C-124.11453337 231.30188746 -120.99703825 258.83018058 -105.515625 281.6484375 C-104 284 -104 284 -102.5625 287.625 C-100.30522414 292.50071586 -96.906425 296.32985071 -93 300 C-92.01 300.33 -91.02 300.66 -90 301 C-89.33028144 302.33180302 -88.66396774 303.66532062 -88 305 C-85.28709213 307.36544184 -82.24968204 309.26603308 -79.25 311.25 C-78.45078125 311.80429687 -77.6515625 312.35859375 -76.828125 312.9296875 C-72.27837561 315.96784252 -69.59258953 317.4139766 -64 317 C-61 318.05859375 -61 318.05859375 -58 319.4375 C-52.04405596 322.15955255 -46.68501108 323.07099421 -40.1640625 323.31640625 C-39.10058594 323.35830078 -38.03710938 323.40019531 -36.94140625 323.44335938 C-35.29978516 323.50233398 -35.29978516 323.50233398 -33.625 323.5625 C-32.50738281 323.60568359 -31.38976562 323.64886719 -30.23828125 323.69335938 C-27.49229801 323.79897411 -24.74623119 323.9010797 -22 324 C-22 323.34 -22 322.68 -22 322 C-21.38253906 321.97421875 -20.76507812 321.9484375 -20.12890625 321.921875 C-14.62982411 321.55359553 -10.3459163 320.58650642 -5.40625 318.16015625 C-2.69482319 316.85286118 0.07133194 315.78223121 2.875 314.6875 C12.69341636 310.58502794 20.56559906 305.52751932 27 297 C27.91072266 295.87464844 27.91072266 295.87464844 28.83984375 294.7265625 C38.07622073 282.65873803 39.5341241 267.55667877 43 253 C16.93 252.67 -9.14 252.34 -36 252 C-36 227.58 -36 203.16 -36 178 C18.12 178 72.24 178 128 178 C128 249.28 128 320.56 128 394 C107.54 394 87.08 394 66 394 C65.34 386.41 64.68 378.82 64 371 C63.35781388 365.32735591 62.71449017 359.66271463 62 354 C58.57314484 354.95975497 57.20415882 355.71792751 55.0859375 358.64453125 C54.52132813 359.68996094 53.95671875 360.73539063 53.375 361.8125 C52.80523438 362.85019531 52.23546875 363.88789062 51.6484375 364.95703125 C50.64213069 366.81464501 49.64802921 368.6790233 48.67578125 370.5546875 C46.50041487 373.72899835 43.82091215 375.97248455 40.8125 378.3125 C40.20752686 378.78671387 39.60255371 379.26092773 38.97924805 379.74951172 C30.96576546 385.81040328 20.23628411 392.60404545 10.0625 393.25 C3.42523852 393.91372615 -2.99459766 396.68561832 -8.74755859 400.00976562 C-18.50897097 404.30114744 -31.72526487 403.44080546 -42.1875 403.4375 C-43.28059982 403.43910126 -43.28059982 403.43910126 -44.39578247 403.44073486 C-70.20646781 403.38679843 -95.53116984 397.80717247 -119 387 C-120.06992187 386.52304687 -121.13984375 386.04609375 -122.2421875 385.5546875 C-138.62434647 377.86510268 -152.29881104 366.76432006 -165 354 C-166.24330078 352.75669922 -166.24330078 352.75669922 -167.51171875 351.48828125 C-186.38950968 331.52594936 -205.64332462 300.29834101 -209.41015625 272.703125 C-209.93573444 269.85138847 -209.93573444 269.85138847 -211.4296875 266.80859375 C-213.44360813 262.29999835 -214.22018867 257.65492356 -215.0625 252.8125 C-215.22298828 251.96236328 -215.38347656 251.11222656 -215.54882812 250.23632812 C-218.45140105 234.02155328 -219.31394471 217.80858899 -219.20581055 201.36376953 C-219.18750982 198.50153631 -219.18530244 195.63962967 -219.18554688 192.77734375 C-219.16799488 183.48557801 -218.99277575 174.21488521 -218.5390625 164.93359375 C-218.49899582 164.11205811 -218.45892914 163.29052246 -218.41764832 162.4440918 C-217.92158932 153.28497173 -215.84045236 145.184245 -213.0546875 136.4609375 C-211.99245947 132.97525588 -211.11740158 129.47619141 -210.25 125.9375 C-204.23782643 103.30480028 -193.41837861 81.43392054 -179 63 C-178.24976563 62.03964844 -177.49953125 61.07929688 -176.7265625 60.08984375 C-162.28160293 42.07165733 -162.28160293 42.07165733 -156 38 C-155.34 38 -154.68 38 -154 38 C-154 37.34 -154 36.68 -154 36 C-153.14341797 35.5978125 -153.14341797 35.5978125 -152.26953125 35.1875 C-145.78145879 32.05177023 -139.75346169 28.44413063 -133.6875 24.57421875 C-131 23 -131 23 -129 23 C-129.495 21.515 -129.495 21.515 -130 20 C-128.27843904 18.98696238 -126.54738194 17.99005152 -124.8125 17 C-123.84957031 16.443125 -122.88664063 15.88625 -121.89453125 15.3125 C-118.95111257 13.97783242 -117.18119943 13.72084539 -114 14 C-113.505 12.515 -113.505 12.515 -113 11 C-110.57910156 9.84912109 -110.57910156 9.84912109 -107.390625 8.7734375 C-106.24335937 8.3815625 -105.09609375 7.9896875 -103.9140625 7.5859375 C-102.70492187 7.18632812 -101.49578125 6.78671875 -100.25 6.375 C-99.05632812 5.96765625 -97.86265625 5.5603125 -96.6328125 5.140625 C-90.32362439 3.00933327 -84.34707479 1.15157872 -77.69921875 0.53515625 C-76.89597168 0.4582959 -76.09272461 0.38143555 -75.26513672 0.30224609 C-74.4145166 0.22312988 -73.56389648 0.14401367 -72.6875 0.0625 C-66.55033824 -0.51572655 -60.47286325 -1.20934641 -54.375 -2.125 C-36.5442652 -4.3763554 -17.5358872 -4.19629354 0 0 Z " fill="#65A49A" transform="translate(794,244)"/>
<path d="M0 0 C1.32 0 2.64 0 4 0 C4.02332758 19.54029795 4.04097848 39.08059309 4.05181217 58.62090206 C4.05697543 67.69315493 4.06401869 76.76539916 4.07543945 85.83764648 C4.08538538 93.74208712 4.09185321 101.64652151 4.09408849 109.55096823 C4.09539576 113.73894719 4.09848259 117.92690827 4.10573006 122.11488152 C4.11248884 126.05215298 4.11461725 129.98939908 4.11310768 133.9266758 C4.11338407 135.37594617 4.11539004 136.82521735 4.11920547 138.27448273 C4.12414043 140.24470414 4.12239809 142.21493898 4.12025452 144.18516541 C4.12117631 145.29039519 4.1220981 146.39562498 4.12304783 147.53434658 C4 150 4 150 3 151 C1.60765841 160.0196292 1.70275462 169.27893177 1.46484375 178.38671875 C1.4217341 179.94042283 1.37831748 181.49411841 1.33460999 183.04780579 C1.22142746 187.10000839 1.11236336 191.15231131 1.00421143 195.20465088 C0.89270678 199.35460276 0.77723174 203.50444406 0.66210938 207.65429688 C0.43756118 215.76942927 0.21737186 223.88467222 0 232 C-0.66 232 -1.32 232 -2 232 C-2.95324169 183.13027163 -3.5081262 134.25670581 -3.92522621 85.37973404 C-3.97826538 79.24752618 -4.03983624 73.11546194 -4.10742188 66.98339844 C-4.18670197 59.77103542 -4.24518685 52.55881304 -4.28610229 45.34613037 C-4.30340067 42.82576772 -4.32750486 40.30544049 -4.35916138 37.78521729 C-4.52008719 24.55627889 -4.19680189 12.64614167 0 0 Z " fill="#151826" transform="translate(546,404)"/>
<path d="M0 0 C1.32 0 2.64 0 4 0 C3.88060501 4.25023138 3.75629836 8.50028405 3.62768555 12.75024414 C3.58470988 14.19226302 3.54301352 15.63432067 3.50268555 17.07641602 C2.90578769 38.33629645 2.90578769 38.33629645 0 44 C-0.43473339 46.07169246 -0.80654223 48.15727751 -1.125 50.25 C-1.29257812 51.32765625 -1.46015625 52.4053125 -1.6328125 53.515625 C-1.75398437 54.33546875 -1.87515625 55.1553125 -2 56 C-2.66 56 -3.32 56 -4 56 C-6.72116964 38.31239737 -6.22785926 16.90418943 0 0 Z " fill="#64948F" transform="translate(580,384)"/>
<path d="M0 0 C3.63 0 7.26 0 11 0 C8.14871348 1.90085768 5.93954164 2.79191499 2.7109375 3.83984375 C1.68742188 4.18080078 0.66390625 4.52175781 -0.390625 4.87304688 C-2.55277198 5.58462302 -4.71686059 6.29032546 -6.8828125 6.99023438 C-7.90375 7.33248047 -8.9246875 7.67472656 -9.9765625 8.02734375 C-10.91580566 8.33406006 -11.85504883 8.64077637 -12.82275391 8.95678711 C-13.54124512 9.30104736 -14.25973633 9.64530762 -15 10 C-15.33 10.99 -15.66 11.98 -16 13 C-17.485 13.12375 -17.485 13.12375 -19 13.25 C-23.47456948 13.86308007 -27.09570685 15.81968045 -31 18 C-31 18.99 -31 19.98 -31 21 C-32.49707031 22.24267578 -32.49707031 22.24267578 -34.578125 23.4453125 C-35.32707031 23.88230469 -36.07601562 24.31929688 -36.84765625 24.76953125 C-37.64042969 25.21683594 -38.43320312 25.66414063 -39.25 26.125 C-40.41595703 26.80755859 -40.41595703 26.80755859 -41.60546875 27.50390625 C-48.40343552 31.41999992 -48.40343552 31.41999992 -52 32 C-52.66 31.67 -53.32 31.34 -54 31 C-52.42739812 27.13997719 -50.24884494 24.59907595 -47 22 C-43.1875 21.6875 -43.1875 21.6875 -40 22 C-40.00515625 21.27167969 -40.0103125 20.54335938 -40.015625 19.79296875 C-38.40525071 15.36443945 -34.83382127 14.29365957 -30.75 12.3125 C-29.98558594 11.92255859 -29.22117187 11.53261719 -28.43359375 11.13085938 C-17.7037376 5.71033619 -17.7037376 5.71033619 -12.1875 5.875 C-11.00220703 5.90207031 -11.00220703 5.90207031 -9.79296875 5.9296875 C-9.20128906 5.95289063 -8.60960937 5.97609375 -8 6 C-8 4.68 -8 3.36 -8 2 C-5.36 2 -2.72 2 0 2 C0 1.34 0 0.68 0 0 Z " fill="#1A2E35" transform="translate(696,246)"/>
<path d="M0 0 C0 0.66 0 1.32 0 2 C-0.94875 2.12375 -1.8975 2.2475 -2.875 2.375 C-13.24097334 3.89216147 -22.84013279 6.72023694 -32.7109375 10.21875 C-45.66744088 14.77751971 -45.66744088 14.77751971 -51 13 C-51.33 12.01 -51.66 11.02 -52 10 C-39.45722561 4.51107639 -26.79935412 -0.53903337 -13.0625 -1.6875 C-11.87785156 -1.79449219 -10.69320312 -1.90148437 -9.47265625 -2.01171875 C-5.87468109 -1.9995771 -3.32289033 -1.32408302 0 0 Z " fill="#63938E" transform="translate(732,246)"/>
<path d="M0 0 C15.51 0 31.02 0 47 0 C44.69989124 2.30010876 43.62478923 2.45884754 40.5 3.0625 C37.14540186 3.71952131 37.14540186 3.71952131 34 5 C33.67 5.99 33.34 6.98 33 8 C25.08 8 17.16 8 9 8 C10.32 6.68 11.64 5.36 13 4 C8.71 3.34 4.42 2.68 0 2 C0 1.34 0 0.68 0 0 Z " fill="#171B27" transform="translate(422,318)"/>
<path d="M0 0 C0 0.66 0 1.32 0 2 C-3.05116847 4.03411232 -3.63726096 4.25028354 -7.0625 4.23046875 C-7.85462891 4.22942139 -8.64675781 4.22837402 -9.46289062 4.22729492 C-10.30013672 4.2141626 -11.13738281 4.20103027 -12 4.1875 C-12.85271484 4.17887939 -13.70542969 4.17025879 -14.58398438 4.16137695 C-31.94266803 3.91589063 -31.94266803 3.91589063 -34.78125 1.45703125 C-35.1834375 0.97621094 -35.585625 0.49539063 -36 0 C-27.4886707 -5.25211296 -9.33089212 -2.70823454 0 0 Z " fill="#11222A" transform="translate(785,562)"/>
<path d="M0 0 C5.61 0 11.22 0 17 0 C17.33 0.99 17.66 1.98 18 3 C25.99138419 4.08446979 33.97885214 5.15566865 42 6 C42 6.66 42 7.32 42 8 C38.16673205 8.05859888 34.33358112 8.09379643 30.5 8.125 C29.42234375 8.14175781 28.3446875 8.15851562 27.234375 8.17578125 C18.89484902 8.22663202 12.24415455 7.10173106 4.5 3.875 C3.6440625 3.52179687 2.788125 3.16859375 1.90625 2.8046875 C1.2771875 2.53914062 0.648125 2.27359375 0 2 C0 1.34 0 0.68 0 0 Z " fill="#264347" transform="translate(730,560)"/>
<path d="M0 0 C2.82249932 0.87099396 5.63024343 1.76969989 8.4375 2.6875 C9.23994141 2.93177734 10.04238281 3.17605469 10.86914062 3.42773438 C13.04485236 4.15297162 15.01676333 4.84633742 17 6 C18.03515625 8.70703125 18.03515625 8.70703125 18 11 C19.04800781 11.07347656 19.04800781 11.07347656 20.1171875 11.1484375 C21.02726563 11.22320313 21.93734375 11.29796875 22.875 11.375 C23.77992188 11.44460938 24.68484375 11.51421875 25.6171875 11.5859375 C28 12 28 12 30 14 C23.08556828 17.32424602 23.08556828 17.32424602 19 16 C15.82010972 14.24833091 12.83399375 12.19787329 9.8125 10.1875 C8.98041016 9.65318359 8.14832031 9.11886719 7.29101562 8.56835938 C6.50017578 8.04435547 5.70933594 7.52035156 4.89453125 6.98046875 C3.80942261 6.26733521 3.80942261 6.26733521 2.70239258 5.53979492 C0.72414615 3.7504933 0.36812373 2.60208485 0 0 Z " fill="#1B3038" transform="translate(704,545)"/>
<path d="M0 0 C6.76100758 -0.26003875 13.43020944 0.29711029 20 2 C20.33 2.66 20.66 3.32 21 4 C27.33539605 6.25422231 34.34917169 6.52760472 41 7 C41 7.33 41 7.66 41 8 C32.82496758 10.46793431 24.87372634 11.85014389 17.0625 7.6875 C16.26199219 7.23375 15.46148438 6.78 14.63671875 6.3125 C10.01883762 4.01382139 5.02247713 3.06145135 0 2 C0 1.34 0 0.68 0 0 Z " fill="#659794" transform="translate(774,242)"/>
<path d="M0 0 C1.13598633 0.00483398 1.13598633 0.00483398 2.29492188 0.00976562 C3.47344727 0.02233398 3.47344727 0.02233398 4.67578125 0.03515625 C5.47306641 0.03966797 6.27035156 0.04417969 7.09179688 0.04882812 C9.05732382 0.06059775 11.0228121 0.07853277 12.98828125 0.09765625 C12.98828125 1.08765625 12.98828125 2.07765625 12.98828125 3.09765625 C6.89664298 5.5794348 1.04858446 6.6228171 -5.44921875 7.34765625 C-6.25472168 7.43966309 -7.06022461 7.53166992 -7.89013672 7.62646484 C-13.75008717 8.22847204 -13.75008717 8.22847204 -16.01171875 7.09765625 C-14.57714547 6.11420665 -13.13894469 5.13604704 -11.69921875 4.16015625 C-10.89871094 3.61488281 -10.09820313 3.06960938 -9.2734375 2.5078125 C-6.11886827 0.540974 -3.64337625 -0.02739381 0 0 Z " fill="#1F343C" transform="translate(735.01171875,320.90234375)"/>
<path d="M0 0 C0 1.65 0 3.3 0 5 C-5.67853123 8.8720723 -9.64582308 9.53458276 -16.4375 9.25 C-17.26443359 9.23195313 -18.09136719 9.21390625 -18.94335938 9.1953125 C-20.96274933 9.1486214 -22.98153445 9.07689393 -25 9 C-21.87079239 6.42743028 -18.74388891 4.90063473 -15 3.375 C-13.453125 2.73691406 -13.453125 2.73691406 -11.875 2.0859375 C-7.71357315 0.51409421 -4.45301492 -0.12369486 0 0 Z " fill="#1F353D" transform="translate(808,636)"/>
<path d="M0 0 C1.32 0 2.64 0 4 0 C5.13016601 5.02296004 4.77916092 8.97874074 4 14 C-0.29 14.66 -4.58 15.32 -9 16 C-7.48809583 12.22023956 -6.02637356 9.17842147 -3.9375 5.75 C-3.41027344 4.87859375 -2.88304687 4.0071875 -2.33984375 3.109375 C-1 1 -1 1 0 0 Z " fill="#1B3438" transform="translate(852,598)"/>
<path d="M0 0 C5.27749285 0.53851968 9.25645564 1.77343836 14 4 C13.35522931 5.62542193 12.70914857 7.25032424 12.0625 8.875 C11.70285156 9.77992188 11.34320313 10.68484375 10.97265625 11.6171875 C10 14 10 14 9 16 C8.34 16 7.68 16 7 16 C3.3956321 11.16230728 0.32301201 6.13722814 0 0 Z " fill="#3A3D45" transform="translate(348,366)"/>
<path d="M0 0 C-0.33 0.61875 -0.66 1.2375 -1 1.875 C-2.14193235 3.91018344 -2.14193235 3.91018344 -2 6 C-3.69274284 7.56432787 -5.45569852 9.05328572 -7.25 10.5 C-8.22453125 11.2940625 -9.1990625 12.088125 -10.203125 12.90625 C-12.44894762 14.58748034 -14.4465803 15.88135899 -17 17 C-17.66 16.34 -18.32 15.68 -19 15 C-18.91869174 11.86963188 -17.81778678 10.80372335 -15.671875 8.4921875 C-14.22554687 7.19667969 -14.22554687 7.19667969 -12.75 5.875 C-11.79609375 5.00617188 -10.8421875 4.13734375 -9.859375 3.2421875 C-3.49574468 -1.74787234 -3.49574468 -1.74787234 0 0 Z " fill="#1E3039" transform="translate(714,333)"/>
<path d="M0 0 C0 1.32 0 2.64 0 4 C1.4540625 4.433125 1.4540625 4.433125 2.9375 4.875 C6 6 6 6 7 8 C6.67 8.66 6.34 9.32 6 10 C3.74971671 9.85860519 1.49977794 9.71171997 -0.75 9.5625 C-2.62945312 9.44068359 -2.62945312 9.44068359 -4.546875 9.31640625 C-7.18317553 9.07484478 -9.48037294 8.75716066 -12 8 C-11.3125 5.125 -11.3125 5.125 -10 2 C-6.66231761 0.01543209 -3.83347895 -0.21905594 0 0 Z " fill="#2E3039" transform="translate(466,320)"/>
<path d="M0 0 C3.04328042 1.03246106 5.25671726 2.27872455 8 4 C8 4.66 8 5.32 8 6 C0.38917272 6.21173863 -6.69210989 6.3141652 -14 4 C-14.33 3.01 -14.66 2.02 -15 1 C-10.58367583 -1.20816209 -4.80372901 -0.43060202 0 0 Z " fill="#223941" transform="translate(809,243)"/>
<path d="M0 0 C0 5.28 0 10.56 0 16 C-1.98 16.99 -1.98 16.99 -4 18 C-4 15.36 -4 12.72 -4 10 C-5.32 10 -6.64 10 -8 10 C-7.39457203 3.58246347 -7.39457203 3.58246347 -5.6875 1.0625 C-4 0 -4 0 0 0 Z " fill="#121521" transform="translate(384,426)"/>
<path d="M0 0 C8.29385952 0.23297358 14.86341216 0.57531554 22 5 C21.67 5.66 21.34 6.32 21 7 C12.3590252 9.30425995 6.64603194 6.07709586 -1 2 C-0.67 1.34 -0.34 0.68 0 0 Z " fill="#20353E" transform="translate(820,250)"/>
<path d="M0 0 C2 2 2 2 2.22705078 3.87939453 C2.21657715 4.62302246 2.20610352 5.36665039 2.1953125 6.1328125 C2.18886719 6.93847656 2.18242188 7.74414062 2.17578125 8.57421875 C2.15902344 9.41597656 2.14226563 10.25773438 2.125 11.125 C2.11597656 11.97449219 2.10695313 12.82398438 2.09765625 13.69921875 C2.07405647 15.79959884 2.03818483 17.89983444 2 20 C-0.31 20.66 -2.62 21.32 -5 22 C-4.35706295 18.89522615 -3.71015082 15.7912937 -3.0625 12.6875 C-2.88009766 11.80642578 -2.69769531 10.92535156 -2.50976562 10.01757812 C-2.33251953 9.17001953 -2.15527344 8.32246094 -1.97265625 7.44921875 C-1.72914429 6.27879028 -1.72914429 6.27879028 -1.48071289 5.0847168 C-1 3 -1 3 0 0 Z " fill="#60908B" transform="translate(836,502)"/>
<path d="M0 0 C0.99 0 1.98 0 3 0 C5.10428384 5.12919186 5.21755666 9.5610835 5 15 C3.68 15 2.36 15 1 15 C0.34 16.32 -0.32 17.64 -1 19 C-1.02683987 16.02077407 -1.04676037 13.04178705 -1.0625 10.0625 C-1.07087891 9.21236328 -1.07925781 8.36222656 -1.08789062 7.48632812 C-1.09111328 6.67744141 -1.09433594 5.86855469 -1.09765625 5.03515625 C-1.10289307 4.2862915 -1.10812988 3.53742676 -1.11352539 2.76586914 C-1 1 -1 1 0 0 Z " fill="#141926" transform="translate(445,425)"/>
<path d="M0 0 C0.66 0 1.32 0 2 0 C2.57374185 6.88490225 1.4753869 11.02667877 -2 17 C-3.98 16.67 -5.96 16.34 -8 16 C-7.34 14.02 -6.68 12.04 -6 10 C-5.34 10 -4.68 10 -4 10 C-3.67 8.02 -3.34 6.04 -3 4 C-2.34 4 -1.68 4 -1 4 C-0.67 2.68 -0.34 1.36 0 0 Z " fill="#1D313A" transform="translate(691,351)"/>
<path d="M0 0 C0.66 0.33 1.32 0.66 2 1 C2 1.66 2 2.32 2 3 C3.32 3 4.64 3 6 3 C6 6.3 6 9.6 6 13 C3.36 13 0.72 13 -2 13 C-1.85966889 11.02043559 -1.7125877 9.04134859 -1.5625 7.0625 C-1.48128906 5.96035156 -1.40007812 4.85820312 -1.31640625 3.72265625 C-1 1 -1 1 0 0 Z " fill="#363843" transform="translate(374,433)"/>
<path d="M0 0 C3.3 0 6.6 0 10 0 C9.34 3.3 8.68 6.6 8 10 C6.35 9.67 4.7 9.34 3 9 C2.01 6.03 1.02 3.06 0 0 Z " fill="#151926" transform="translate(216,332)"/>
</svg>
